<svg width="18" height="17" viewBox="0 0 18 17" fill="none" xmlns="http://www.w3.org/2000/svg">
<path fill-rule="evenodd" clip-rule="evenodd" d="M4.42306 9.28934V16.3575C4.42306 16.7124 4.1304 17 3.76917 17H1.1539C0.79266 17 0.5 16.7124 0.5 16.3575V3.50635C0.5 3.24017 0.666966 3.00161 0.919925 2.90646C0.919925 2.90646 6.60805 0.764126 8.29795 0.127689C8.74989 -0.0425628 9.25 -0.0425628 9.70194 0.127689C11.3918 0.764126 17.0801 2.90646 17.0801 2.90646C17.417 3.03337 17.5857 3.40518 17.4566 3.73628C17.3274 4.06753 16.9491 4.23331 16.6122 4.10639C16.6122 4.10639 10.9239 1.96406 9.23399 1.32762C9.08335 1.27087 8.9167 1.27087 8.76605 1.32762L1.80764 3.94832V15.7149H3.11543V6.07662C3.11543 5.72177 3.40809 5.43401 3.76917 5.43401H14.2307C14.5918 5.43401 14.8846 5.72177 14.8846 6.07662V15.7149H16.1923V6.07662C16.1923 5.72193 16.4852 5.43401 16.8461 5.43401C17.2069 5.43401 17.4999 5.72193 17.4999 6.07662V16.3575C17.4999 16.7124 17.2072 17 16.8461 17H14.2307C13.8696 17 13.5768 16.7124 13.5768 16.3575V9.28934H4.42306ZM13.5768 8.00428V6.71922H4.42306V8.00428H13.5768Z" fill="black"/>
</svg>
